<svg width="80" height="80" viewBox="0 0 80 80" fill="none" xmlns="http://www.w3.org/2000/svg">
<g filter="url(#filter0_d_4_3100)">
<circle cx="39.8113" cy="35.8113" r="35.8113" fill="url(#paint0_linear_4_3100)"/>
</g>
<path d="M55.5176 21.3852C52.4758 13.097 36.1136 9.23575 33.7335 8.71469C33.5447 8.67336 33.3941 8.55214 33.3077 8.37925C33.2322 8.22825 33.3457 8.0548 33.5122 8.08253C36.2788 8.54327 53.1784 11.7332 56.4935 21.3852C60.2539 32.3335 38.4223 44.565 39.4437 52.225C40.0751 56.9611 46.0742 63.5916 46.0742 63.5916C46.0742 63.5916 40.2856 58.8555 38.8122 52.225C37.1283 44.6473 59.5872 32.4741 55.5176 21.3852Z" fill="white"/>
<path d="M34.5481 21.3853C37.6107 13.0405 51.3163 9.73315 53.1364 9.32798C53.2697 9.2983 53.3878 9.2333 53.4844 9.13672C53.6411 8.97996 53.5166 8.72124 53.2981 8.75879C50.1398 9.30167 36.7531 12.1241 33.5722 21.3853C29.8119 32.3337 51.5371 45.244 50.4947 52.5409C49.9083 56.6455 41.0225 63.9075 41.0225 63.9075C41.0225 63.9075 50.0035 57.5927 51.1261 52.5409C52.7399 45.2789 30.4785 32.4742 34.5481 21.3853Z" fill="white"/>
<path d="M28.7878 18.4409L29.4193 17.4937C29.4193 17.4937 28.8877 17.1066 28.4721 16.5465C27.5249 15.2698 27.5249 14.3363 27.5249 14.3363C27.5249 14.3363 27.4124 15.1278 27.5249 15.915C27.6373 16.7022 27.8406 16.8622 27.8406 16.8622C27.8406 16.8622 27.5249 16.8622 27.2091 16.2307C27.0103 15.8331 26.8934 14.9678 26.8934 14.9678C26.8934 14.9678 26.5776 16.2307 27.2091 17.1779C27.7743 18.0256 28.7878 18.4409 28.7878 18.4409Z" fill="white"/>
<path d="M29.1526 16.6933C29.4683 13.8519 31.5506 10.2811 32.182 9.64926C32.8135 9.01737 33.1293 9.33397 32.8135 9.64962C32.8135 9.64962 30.2876 13.7538 29.9719 16.9112C29.6561 20.0686 22.4352 21.4291 22.751 22.6921C23.0667 23.955 24.9611 23.955 25.2769 25.218C25.5926 26.4809 23.0256 27.0637 23.3414 28.0109C23.6571 28.9581 24.2886 28.8482 24.2886 29.2738C24.2886 29.5896 23.6982 29.6382 23.6571 30.5368C23.6225 31.2954 24.9611 31.5327 24.9611 32.7957C24.9611 34.0586 23.4749 35.0288 23.6571 36.1224C23.8676 37.3853 25.3929 38.0802 27.487 37.8475C30.3287 37.5317 33.5561 37.8283 34.749 38.479C38.2221 40.3734 40.4323 45.1097 40.4323 45.1097C40.4323 45.1097 37.6924 40.5454 34.1175 39.1104C31.009 37.8626 27.1302 39.2798 24.3297 38.1632C23.6209 37.8806 22.7099 37.0696 22.7099 35.8067C22.7099 34.5437 24.6908 32.8965 23.6982 31.8488C23.3189 31.4484 22.3942 30.8525 22.3942 30.5368C22.3942 30.2211 23.0256 29.5896 23.0667 29.3226C23.1604 28.7132 22.3942 28.3263 22.3942 27.6951C22.3942 27.064 23.6982 26.4809 24.0139 26.1652C24.3297 25.8494 24.9611 25.5337 24.0139 24.9022C23.0667 24.2707 21.488 23.3235 21.8038 22.0606C22.1195 20.7976 28.8368 19.5347 29.1526 16.6933Z" fill="white"/>
<defs>
<filter id="filter0_d_4_3100" x="0" y="0" width="79.623" height="79.6227" filterUnits="userSpaceOnUse" color-interpolation-filters="sRGB">
<feFlood flood-opacity="0" result="BackgroundImageFix"/>
<feColorMatrix in="SourceAlpha" type="matrix" values="0 0 0 0 0 0 0 0 0 0 0 0 0 0 0 0 0 0 127 0" result="hardAlpha"/>
<feOffset dy="4"/>
<feGaussianBlur stdDeviation="2"/>
<feComposite in2="hardAlpha" operator="out"/>
<feColorMatrix type="matrix" values="0 0 0 0 0 0 0 0 0 0 0 0 0 0 0 0 0 0 0.25 0"/>
<feBlend mode="normal" in2="BackgroundImageFix" result="effect1_dropShadow_4_3100"/>
<feBlend mode="normal" in="SourceGraphic" in2="effect1_dropShadow_4_3100" result="shape"/>
</filter>
<linearGradient id="paint0_linear_4_3100" x1="46.1141" y1="23.7787" x2="83.6444" y2="55.8657" gradientUnits="userSpaceOnUse">
<stop stop-color="#BB1624"/>
<stop offset="1" stop-color="#50090F"/>
</linearGradient>
</defs>
</svg>
